<?xml version="1.0" encoding="UTF-8"?><svg id="Artwork" xmlns="http://www.w3.org/2000/svg" xmlns:xlink="http://www.w3.org/1999/xlink" viewBox="0 0 710.88 802.92"><defs><style>.cls-1{fill:url(#linear-gradient);}.cls-2,.cls-3{fill:#fff;}.cls-4{fill:#142f52;}.cls-5{fill:url(#New_Gradient_Swatch_7);}.cls-6{fill:url(#New_Gradient_Swatch_5);}.cls-7{fill:url(#New_Gradient_Swatch_4);}.cls-8{fill:url(#linear-gradient-3);}.cls-9{fill:url(#linear-gradient-2);}.cls-3{fill-rule:evenodd;}.cls-10{fill:url(#New_Gradient_Swatch_5-2);}.cls-11{fill:#010101;opacity:.3;}.cls-12{fill:none;opacity:.2;}</style><linearGradient id="linear-gradient" x1="87.89" y1="318.62" x2="614.3" y2="318.62" gradientUnits="userSpaceOnUse"><stop offset="0" stop-color="#283177"/><stop offset=".25" stop-color="#283177"/><stop offset=".58" stop-color="#006fa6"/></linearGradient><linearGradient id="New_Gradient_Swatch_5" x1="132.19" y1="315.91" x2="570" y2="315.91" gradientUnits="userSpaceOnUse"><stop offset=".14" stop-color="#f05323"/><stop offset=".51" stop-color="#f99b1c"/><stop offset=".6" stop-color="#f8981c"/><stop offset=".67" stop-color="#f78f1d"/><stop offset=".72" stop-color="#f57f1e"/><stop offset=".77" stop-color="#f26a20"/><stop offset=".82" stop-color="#f05323"/></linearGradient><linearGradient id="linear-gradient-2" y1="453.41" y2="453.41" xlink:href="#linear-gradient"/><linearGradient id="New_Gradient_Swatch_5-2" y1="453.6" y2="453.6" xlink:href="#New_Gradient_Swatch_5"/><linearGradient id="New_Gradient_Swatch_4" x1="368.19" y1="629.71" x2="676.98" y2="629.71" gradientTransform="translate(-203.11 96.17) rotate(-2.96)" gradientUnits="userSpaceOnUse"><stop offset=".14" stop-color="#283177"/><stop offset=".58" stop-color="#006fa6"/><stop offset=".89" stop-color="#283177"/></linearGradient><linearGradient id="linear-gradient-3" x1="21.76" y1="238.2" x2="680.43" y2="238.2" gradientUnits="userSpaceOnUse"><stop offset=".14" stop-color="#283177"/><stop offset=".58" stop-color="#007cb9"/><stop offset=".89" stop-color="#283177"/></linearGradient><linearGradient id="New_Gradient_Swatch_7" x1="7.86" y1="240.32" x2="694.33" y2="240.32" gradientUnits="userSpaceOnUse"><stop offset="0" stop-color="#848f91"/><stop offset=".27" stop-color="#f2fafd"/><stop offset=".49" stop-color="#a3b3ba"/><stop offset=".79" stop-color="#f2fafd"/><stop offset="1" stop-color="#848f91"/></linearGradient></defs><path class="cls-4" d="m466.11,16.92c27.06,0,66.31,7.09,99.57,40.89,35.12,35.67,52.92,91.54,52.92,166.02,0,64.22-13.04,124.73-38.77,179.84-20.57,44.07-49.14,84.56-84.92,120.33-60.29,60.31-122.04,87.36-124.64,88.48l-11.67,4.99-5.81,2.49-1.69.72h0l-1.69-.72-5.82-2.49-11.64-4.98c-2.6-1.12-64.26-28.08-124.68-88.49-35.8-35.81-64.37-76.29-84.92-120.33-25.73-55.11-38.76-115.61-38.76-179.84,0-74.49,17.8-130.35,52.92-166.03,33.26-33.79,72.5-40.88,99.57-40.88"/><path class="cls-1" d="m466.11,21.22c26.25,0,64.29,6.87,96.51,39.61,34.3,34.85,51.69,89.69,51.69,163.01,0,63.58-12.91,123.48-38.36,178.03-20.35,43.61-48.63,83.68-84.07,119.11-59.83,59.85-120.74,86.47-123.3,87.57l-11.66,5-5.81,2.49h0l-5.81-2.49-11.64-4.98c-2.59-1.12-63.49-27.74-123.33-87.59-35.44-35.44-63.73-75.51-84.08-119.11-25.46-54.55-38.36-114.45-38.36-178.03,0-73.32,17.39-128.17,51.7-163.01,32.21-32.73,70.26-39.6,96.5-39.6"/><path class="cls-2" d="m466.11,35.98c23.42,0,57.35,6.11,85.99,35.2,31.48,31.98,47.45,83.34,47.45,152.65,0,61.42-12.44,119.21-36.98,171.79-19.62,42.04-46.91,80.7-81.12,114.91-58.08,58.09-116.26,83.4-118.7,84.45l-11.64,4.98h0l-11.63-4.98c-2.45-1.06-60.62-26.36-118.7-84.45-34.21-34.21-61.51-72.87-81.13-114.91-24.53-52.58-36.97-110.37-36.97-171.79,0-69.31,15.96-120.67,47.45-152.65,28.63-29.09,62.56-35.2,85.98-35.2"/><path class="cls-6" d="m447.53,64h-192.78s-122.56-1.45-122.56,159.83c0,250.18,218.9,343.99,218.9,343.99,0,0,218.9-93.81,218.9-343.99,0-161.29-122.47-159.83-122.47-159.83Z"/><path class="cls-11" d="m351.1,789.12l-5.81-2.49-11.64-4.98c-2.59-1.12-63.49-27.74-123.33-87.58-35.44-35.45-63.73-75.52-84.08-119.12-25.46-54.55-38.36-114.45-38.36-178.02,0-73.33,17.39-128.17,51.7-163.02,32.21-32.73,70.26-39.6,96.5-39.6,9.94,0,18.13,1.01,23.59,1.95h182.84c5.46-.94,13.65-1.95,23.59-1.95,26.25,0,64.29,6.87,96.51,39.61,34.3,34.84,51.69,89.69,51.69,163.01,0,63.59-12.91,123.48-38.36,178.02-20.35,43.61-48.63,83.68-84.07,119.12-59.83,59.84-120.74,86.46-123.3,87.57l-11.66,4.99-5.81,2.49h0Z"/><path class="cls-4" d="m351.1,755.49l-1.69-.73-5.82-2.49-11.64-4.98c-2.6-1.12-64.26-28.08-124.68-88.49-35.79-35.8-64.37-76.29-84.92-120.33-25.73-55.11-38.76-115.62-38.76-179.84,0-74.49,17.8-130.36,52.92-166.03,33.25-33.79,72.5-40.88,99.57-40.88,10.21,0,18.62,1.05,23.98,1.95h182.06c5.36-.9,13.77-1.95,23.98-1.95,27.07,0,66.31,7.09,99.57,40.89,35.12,35.68,52.92,91.54,52.92,166.02,0,64.22-13.04,124.73-38.77,179.84-20.57,44.07-49.14,84.56-84.92,120.33-60.29,60.3-122.04,87.36-124.64,88.47l-11.67,5-5.81,2.49-1.69.73h0Z"/><path class="cls-9" d="m351.1,750.82l-5.81-2.49-11.64-4.98c-2.59-1.12-63.49-27.74-123.33-87.58-35.44-35.44-63.73-75.52-84.08-119.12-25.46-54.55-38.36-114.45-38.36-178.02,0-73.33,17.39-128.17,51.7-163.02,32.21-32.73,70.26-39.6,96.5-39.6,9.94,0,18.13,1.01,23.59,1.95h182.84c5.46-.94,13.65-1.95,23.59-1.95,26.25,0,64.29,6.87,96.51,39.61,34.3,34.85,51.69,89.69,51.69,163.01,0,63.58-12.91,123.48-38.36,178.02-20.35,43.61-48.63,83.68-84.07,119.12-59.83,59.84-120.74,86.46-123.3,87.57l-11.66,4.99-5.81,2.49h0Z"/><path class="cls-2" d="m351.1,734.75l-11.63-4.98c-2.45-1.05-60.62-26.36-118.7-84.44-34.21-34.21-61.51-72.87-81.13-114.92-24.53-52.58-36.97-110.36-36.97-171.78,0-69.31,15.96-120.67,47.45-152.66,28.63-29.09,62.56-35.2,85.98-35.2,9.84,0,17.67,1.1,22.27,1.96h185.48c4.6-.85,12.43-1.96,22.27-1.96,23.42,0,57.35,6.11,85.99,35.2,31.48,31.98,47.45,83.34,47.45,152.65,0,61.42-12.44,119.2-36.98,171.78-19.62,42.04-46.91,80.7-81.12,114.92-58.08,58.08-116.26,83.4-118.7,84.44l-11.64,4.98h0Z"/><path class="cls-10" d="m446.87,204.4h-191.54s-123.13-31.27-123.13,156.36c0,250.18,218.9,344,218.9,344,0,0,218.9-93.82,218.9-344,0-187.63-123.13-156.36-123.13-156.36Z"/><rect class="cls-2" x="186.36" y="64" width="17.34" height="148.61"/><rect class="cls-2" x="238.38" y="64" width="17.34" height="148.61"/><rect class="cls-2" x="290.4" y="64" width="17.34" height="148.61"/><rect class="cls-2" x="342.43" y="64" width="17.34" height="148.61"/><rect class="cls-2" x="394.45" y="64" width="17.34" height="148.61"/><rect class="cls-2" x="446.47" y="64" width="17.34" height="148.61"/><rect class="cls-2" x="498.49" y="64" width="17.34" height="148.61"/><path class="cls-7" d="m505.42,687.57c-57.99-37.3-177.39-28.97-248.06-13.48-70.67,15.5-44.27-27.79-44.27-27.79-15.65,18.41-16.13,37.72-16.13,37.72,0,0-9.66,66.93,61.01,51.44,70.67-15.5,190.07-23.82,248.06,13.48l-12.69-38.79,12.08-22.58Z"/><g class="cls-12"><path class="cls-2" d="m386.99,406.33c102.76-125.5,10.87-194.72,10.87-194.72-.88-.66-2.5-1.2-3.6-1.2h-138.76c-1.1,0-2.87-.22-3.94-.49,0,0-121.2-30.78-121.2,156.85,0,68,39.01,168.73,39.01,168.73.4,1.03,1.58,1.59,2.62,1.24,0,0,147.74-48.27,215-130.41Z"/></g><path class="cls-8" d="m351.1,270.83c96.32,0,192.63,26.79,288.76,80.37,13.53-44.63,27.03-89.28,40.56-133.9-109.08-61.4-219.2-92.11-329.31-92.11s-220.25,30.71-329.35,92.11c13.52,44.63,27.03,89.27,40.56,133.9,96.13-53.58,192.46-80.37,288.78-80.37Z"/><path class="cls-5" d="m684.3,203.46c-109.81-61.81-221.9-93.15-333.18-93.15S127.72,141.65,17.9,203.46l-10.03,5.64,4.26,14.06c13.52,44.64,27.04,89.28,40.56,133.91l4.01,13.24,9.46-5.27c94.46-52.65,190.33-79.34,284.95-79.34s190.48,26.7,284.93,79.34l9.45,5.27,4.01-13.24c6.77-22.32,13.53-44.64,20.28-66.96,6.76-22.32,13.51-44.64,20.28-66.95l4.27-14.07-10.03-5.64Zm-333.18-78.27c110.11,0,220.24,30.71,329.31,92.11-13.53,44.62-27.03,89.27-40.56,133.9-96.13-53.58-192.44-80.37-288.76-80.37s-192.65,26.79-288.78,80.37c-13.53-44.63-27.04-89.27-40.56-133.9,109.09-61.4,219.21-92.11,329.35-92.11Z"/><path class="cls-2" d="m311.71,671.15h8.73v42.61h-9.73v-34.58h-4.22l5.22-8.03Z"/><path class="cls-2" d="m336.61,707.36c1.64,0,3.01-.35,4.1-1.06,1.09-.7,1.94-1.59,2.52-2.66.59-1.07.95-2.27,1.09-3.61.14-1.33.09-2.64-.15-3.92-.32.78-.8,1.46-1.47,2.05-.67.58-1.43,1.07-2.28,1.46-.86.4-1.78.67-2.76.82s-1.95.2-2.93.12c-1.68-.16-3.14-.58-4.4-1.26-1.25-.68-2.28-1.55-3.11-2.61-1.05-1.37-1.78-2.97-2.2-4.8s-.63-3.67-.68-5.51c-.04-2.03.19-3.98.68-5.83s1.06-3.35,1.73-4.49c1.01-1.72,2.35-3.1,3.99-4.13,1.64-1.04,3.55-1.67,5.74-1.9,3.63-.39,6.85.15,9.64,1.61,2.79,1.46,4.85,4,6.18,7.59.55,1.6.98,3.5,1.29,5.68.31,2.19.47,4.47.47,6.86,0,2.77-.21,5.51-.65,8.21-.43,2.7-1.23,5.12-2.4,7.27-1.17,2.15-2.8,3.9-4.89,5.24-2.09,1.35-4.8,2.04-8.12,2.08-2.03.04-3.95-.15-5.74-.56-1.8-.41-3.44-1.1-4.92-2.08l.53-9.55c1.06,1.91,2.36,3.22,3.93,3.92,1.56.71,3.16,1.06,4.81,1.06Zm2.46-14.65c.94-.04,1.75-.3,2.43-.79s1.24-1.09,1.67-1.82.74-1.51.94-2.37c.2-.86.28-1.68.23-2.46-.04-.9-.17-1.78-.38-2.64s-.54-1.62-.97-2.28c-.43-.67-.97-1.2-1.61-1.61-.65-.41-1.44-.62-2.38-.62s-1.76.22-2.46.65c-.7.43-1.28.98-1.73,1.64s-.79,1.42-1.03,2.25c-.23.84-.37,1.67-.41,2.49-.08,2.35.31,4.22,1.17,5.63.86,1.4,2.37,2.05,4.52,1.93Z"/><path class="cls-2" d="m367.85,679.17l-1.06,9.91c.86-.51,1.82-.86,2.87-1.06,1.06-.19,2.11-.29,3.16-.29,1.64,0,3.13.29,4.45.88,1.33.58,2.47,1.4,3.43,2.46s1.7,2.32,2.23,3.78c.53,1.47.81,3.1.85,4.9.16,4.73-1.04,8.33-3.57,10.81-2.54,2.48-6.2,3.82-10.96,4.02-2.03.04-4.04-.15-6.04-.56s-3.73-1.1-5.21-2.08l.53-9.55c1.21,1.87,2.61,3.21,4.19,3.99s3.19,1.17,4.84,1.17c1.52,0,2.89-.43,4.1-1.29s1.95-2.21,2.23-4.04c.31-2.15-.03-3.91-1.03-5.28-1-1.37-2.63-1.97-4.9-1.82-2.26.2-4.31,1.16-6.15,2.87l-4.52-1.94,3.05-24.91h19.64v8.03h-12.13Z"/><path class="cls-2" d="m392.29,670.71c2.11-.45,4.26-.68,6.45-.68,1.06,0,2.14.12,3.26.35s2.16.6,3.16,1.11c.99.5,1.88,1.16,2.66,1.96s1.39,1.79,1.82,2.96c.5,1.4.79,2.87.85,4.4.06,1.52-.11,2.97-.5,4.33s-1.03,2.61-1.9,3.72-2,1.97-3.37,2.55c1.09.32,2.06.82,2.9,1.52.84.7,1.53,1.52,2.08,2.46.55.94.97,1.97,1.26,3.08s.44,2.24.44,3.37c0,1.88-.24,3.58-.73,5.13-.49,1.55-1.22,2.83-2.2,3.84-1.33,1.37-2.98,2.33-4.95,2.87-1.97.55-4.03.84-6.18.88-2.11,0-4.19-.29-6.24-.85-2.05-.56-3.82-1.42-5.3-2.55l1.47-8.79c.89,1.33,2.13,2.4,3.69,3.22,1.57.82,3.17,1.23,4.81,1.23s3.12-.42,4.31-1.26c1.19-.84,1.77-2.22,1.73-4.13-.04-1.18-.24-2.13-.61-2.87-.37-.74-.9-1.32-1.58-1.73-.69-.41-1.49-.69-2.44-.85-.94-.16-2.01-.23-3.22-.23h-4.28v-7.03h2.29c.97,0,2.01-.08,3.11-.23,1.09-.16,2.09-.45,2.99-.88.9-.43,1.65-1.03,2.26-1.78.6-.76.93-1.77.97-3.02.04-1.6-.41-2.77-1.35-3.49-.94-.72-2.15-1.08-3.64-1.08-.74,0-1.5.1-2.28.29-.78.2-1.52.47-2.23.82s-1.37.76-1.99,1.23c-.62.47-1.16.96-1.58,1.46l-1.76-9.08c1.8-1.05,3.75-1.81,5.86-2.25Z"/><path class="cls-3" d="m404.42,137.13c2.77.23,5.53.46,8.3.69-1.33,17.06-2.65,34.12-3.98,51.18-2.71-.17-5.42-.35-8.13-.52,1.27-17.12,2.54-34.24,3.8-51.36Z"/><path class="cls-3" d="m337.5,143.88c6.4-.35,6.89,7.39,1.73,8.47-5.4,1.14-7-5.91-1.73-8.47Z"/><path class="cls-3" d="m382.46,136.1c-.46,14.24-.92,28.48-1.38,42.71-9.05-.06-18.1-.12-27.15-.17.05-10.71-1.19-19.1-9.34-21.62-14.37-4.43-24.21,10.97-18.16,23-6.13.04-11.22.66-16.6,1.56-6.74.69-13.49,1.38-20.23,2.08-3.49.64-11.42,2.8-14.35.86-2.74-1.81-4.54-13.7-4.67-18.33-2.77.4-5.53.81-8.3,1.21.26,3.57,3.97,17.2,2.42,19.54-.82,1.23-11.21,2.39-13.49,2.94-14.64,3.29-29.28,6.57-43.92,9.86-8.17-1.4-6.2-21.83-21.61-17.46-1.67.69-3.34,1.38-5.01,2.08-1.96,1.27-3.92,2.54-5.88,3.8-.12.06-.23.12-.35.17,1.33,2.31,2.65,4.61,3.98,6.92,2.55-.88,4.42-3.28,7.26-4.15,5.83-1.78,7.01,3.59,8.47,6.92.81,1.33,1.61,2.65,2.42,3.98.29.29.58.58.86.86-20.13,5.1-39.69,11.94-57.76,19.71-5.42-13.2-10.84-26.4-16.25-39.6-2.59.98-5.19,1.96-7.78,2.94,6.45,15.85,12.91,31.7,19.37,47.55,5.36-2.13,10.72-4.27,16.08-6.4,11.18-3.92,22.37-7.84,33.55-11.76,5.8-1.78,16.09-2.42,17.81-8.3,8.67,1.78,14.62-.8,22.48-2.77,9.91-2.13,19.83-4.27,29.74-6.4,7.16-1.67,15.46-1.13,17.64-7.78,1.63,1.24,3,2.95,5.36,3.46,3.63.78,8.18-.65,11.24-1.21,5.3-.58,10.61-1.15,15.91-1.73,26.05-4.57,55.61-2.99,84.04-2.77.63-17.12,1.27-34.24,1.9-51.36-2.77-.12-5.53-.23-8.3-.35Zm-36.83,43.06c-3.55.1-7.75.67-10.03-.86-3.41-2.29-4.01-9.38-.52-12.1,1.1-.85,2.37-.96,3.8-1.56,8.38.04,5.16,7.56,6.74,14.35v.17Z"/><path class="cls-3" d="m541.03,166.53c2.59.92,5.19,1.84,7.78,2.77-5.07,13.43-10.15,26.86-15.22,40.29,3.92,1.56,7.84,3.11,11.76,4.67,9.45,3.75,18.91,7.49,28.36,11.24,5.48,2.36,10.95,4.73,16.43,7.09,2.65-6.11,5.3-12.22,7.95-18.33,2.59,1.1,5.19,2.19,7.78,3.29-3.86,8.7-7.72,17.41-11.59,26.11-6.05-2.65-12.11-5.3-18.16-7.95-11.82-4.73-23.63-9.45-35.45-14.18-5.94-2.31-11.87-4.61-17.81-6.92,6.05-16.02,12.11-32.05,18.16-48.07Z"/><path class="cls-3" d="m472.55,168.09c5.74-.16,11.44.88,14.18,3.8-1.15,2.54-2.31,5.07-3.46,7.61-2.28-1.26-11.7-6.45-13.31-.86-1.14,3.94,7.23,11.38,8.13,16.08,2.35,12.3-16.53,18.3-28.19,15.39-8.16-2.03-14.76-6.22-17.12-14.01-2.18-7.2.95-13.59,3.98-17.64.51-.68,2.3-3.75,3.29-3.63,1.9,1.73,3.8,3.46,5.71,5.19l-.69.69c-1.47,3.01-5.37,5.68-4.32,11.07,1.7,8.72,18.42,14.45,26.98,7.95,5.66-4.3-7.66-13.02-6.4-20.4,1.37-7.99,4.83-8.4,11.24-11.24Z"/><path class="cls-3" d="m500.04,173.79c2.42.75,4.84,1.5,7.26,2.25,4.43,1.53,8.5,2.89,10.72,6.57,4.48,7.44-2.59,21.24-4.5,28.19-8.88-2.77-17.75-5.53-26.63-8.3.81-2.71,1.61-5.42,2.42-8.13,6.28,1.9,12.57,3.8,18.85,5.71.86-2.94,1.73-5.88,2.59-8.82,1.32-7.28-8.35-8.6-13.14-9.86.81-2.54,1.61-5.07,2.42-7.61Z"/><path class="cls-3" d="m276.8,198.87c6.59-.38,6.96,7.12,2.25,8.3-6.04,1.51-7.29-5.59-2.25-8.3Z"/><path class="cls-3" d="m266.08,200.6c5.84-.3,6.79,6.81,2.25,8.3-5.66,1.85-8.02-5.21-2.25-8.3Z"/><path class="cls-3" d="m605.87,201.46c5.92-.2,6.91,7.56,1.73,8.65-5.46,1.15-7.17-6.01-1.73-8.65Z"/><path class="cls-3" d="m444.02,213.22c5.97-.26,7.08,7.26,2.08,8.47-5.72,1.39-7.37-5.64-2.08-8.47Z"/><path class="cls-3" d="m454.57,215.47c6.5-.38,7.52,6.92,2.77,8.3-6.32,1.84-7.24-5.74-2.77-8.3Z"/><path class="cls-3" d="m114.95,216.33h1.04v.35c.65,1.18,2.14,6.12,1.56,6.92-2.57,1.42-6.19,1.43-7.26,4.32-.54,1.28.15,2.25.69,2.94,3.6,4.55,8.89-.33,12.45-.69,1.04,2.36,2.08,4.73,3.11,7.09-5.65,2.54-11.3,5.07-16.95,7.61-1.16.51-2.55,1.66-3.8,1.56-1.04-2.31-2.08-4.61-3.11-6.92,1.56-.75,3.11-1.5,4.67-2.25-4.77-2.34-7.57-9.75-3.63-14.87,2.75-3.57,6.83-4.02,11.24-6.05Z"/><path class="cls-3" d="m347.87,258.18c-2.82.12-5.65.23-8.47.35-.23-5.24-.46-10.49-.69-15.74-4.61.23-9.22.46-13.83.69.23,5.19.46,10.38.69,15.56-2.88.12-5.76.23-8.65.35-.52-12.51-1.04-25.02-1.56-37.52,2.88-.12,5.76-.23,8.65-.35.17,4.78.35,9.57.52,14.35,4.61-.17,9.22-.35,13.83-.52-.17-4.84-.35-9.68-.52-14.53,2.82-.12,5.65-.23,8.47-.35.52,12.56,1.04,25.13,1.56,37.7Z"/><path class="cls-3" d="m299.98,223.08h1.21c-3.23,7.72-6.46,15.45-9.68,23.17.63,5.19,1.27,10.38,1.9,15.56h-.35c-2.71.35-5.42.69-8.13,1.04v-.35c-.63-5.07-1.27-10.15-1.9-15.22-4.78-6.8-9.57-13.6-14.35-20.4,2.71-.38,7.86-1.71,10.03-.86,2.71,4.96,5.42,9.91,8.13,14.87.12-.06.23-.12.35-.17,1.5-5.53,3-11.07,4.5-16.6,2.77-.35,5.53-.69,8.3-1.04Z"/><path class="cls-3" d="m385.05,221.35c-3.75-.12-7.49-.23-11.24-.35-4.32,12.28-8.65,24.56-12.97,36.83v.17c3,.12,6,.23,8.99.35.98-3.11,1.96-6.23,2.94-9.34,3.57.12,7.15.23,10.72.35.81,3.23,1.61,6.46,2.42,9.68,3,.17,5.99.35,8.99.52.12-.06.23-.12.35-.17-3.4-12.68-6.8-25.36-10.2-38.04Zm-2.59,21.44c-2.71-.06-5.42-.12-8.13-.17,1.5-4.96,3-9.91,4.5-14.87,1.21,4.96,2.42,9.91,3.63,14.87v.17Z"/><path class="cls-3" d="m454.22,259.74c-.06,2.31-.12,4.61-.17,6.92-13.81,1.15-23.92-3.49-26.11-15.04-3.71-19.59,17.92-29.24,32.68-20.06-.98,2.13-1.96,4.27-2.94,6.4-8.38-4.38-16.79-3.68-19.89,5.36-.74,2.15-1.34,5.95-.52,8.65,2.05,6.74,8.22,8.13,16.95,7.78Z"/><path class="cls-3" d="m477.05,234.14c2.82.75,5.65,1.5,8.47,2.25-2.59,9.8-5.19,19.6-7.78,29.4,4.78,1.21,9.57,2.42,14.35,3.63v.69c-.58,2.13-1.15,4.27-1.73,6.4-7.61-1.96-15.22-3.92-22.83-5.88v-.17c3.17-12.1,6.34-24.21,9.51-36.31Z"/><path class="cls-3" d="m216.97,236.56c1.11,1.38,1.68,4.9,1.9,6.92h-.35c-4.5,1.15-8.99,2.31-13.49,3.46.69,2.77,1.38,5.53,2.08,8.3,4.38-1.1,8.76-2.19,13.14-3.29.52,2.25,1.04,4.5,1.56,6.74h-.35c-4.21,1.15-8.42,2.31-12.62,3.46,1.21,4.84,2.42,9.68,3.63,14.53h-.35c-2.65.69-5.3,1.38-7.95,2.08-3.11-12.1-6.23-24.21-9.34-36.31v-.17c7.38-1.9,14.76-3.8,22.13-5.71Z"/><path class="cls-3" d="m250,230.17h-1.04c-3.34.63-6.69,1.27-10.03,1.9-1.5,12.85-3,25.71-4.5,38.56v.52c2.94-.52,5.88-1.04,8.82-1.56.29-3.34.58-6.69.86-10.03,3.52-.63,7.03-1.27,10.55-1.9,1.5,3,3,5.99,4.5,8.99,2.94-.52,5.88-1.04,8.82-1.56.06-.12.12-.23.17-.35-6.05-11.53-12.11-23.06-18.16-34.58Zm2.07,21.44c-2.42.46-4.84.92-7.26,1.38h-.69c.4-5.07.81-10.15,1.21-15.22,2.25,4.55,4.5,9.11,6.74,13.66v.17Z"/><path class="cls-3" d="m514.57,244.69c2.65.98,5.3,1.96,7.95,2.94.06.12.12.23.17.35-2.88,7.67-5.76,15.33-8.65,23-1.04,4.43,1.05,7.58,3.98,8.65,2.81,1.02,5.83-.3,7.09-1.9,2.47-3.15,3.42-7.55,5.01-11.59,1.73-4.5,3.46-8.99,5.19-13.49,2.71.98,5.42,1.96,8.13,2.94-3.93,10.37-8.67,34.46-24.04,31.3-3.63-.75-6.48-1.63-8.99-3.46-11.88-8.67,1.36-28.8,4.15-38.73Z"/><path class="cls-3" d="m164.58,251.78c1.87.66,2.26,5.02,2.94,6.92,2.48,7.2,4.96,14.41,7.44,21.62,4.67-1.56,9.34-3.11,14.01-4.67.12.17.23.35.35.52.69,2.13,1.38,4.27,2.08,6.4-7.38,2.48-14.76,4.96-22.13,7.44-.06-.17-.12-.35-.17-.52-3.98-11.7-7.95-23.4-11.93-35.1,2.48-.86,4.96-1.73,7.44-2.59Z"/><path class="cls-3" d="m129.99,265.61c-3.34,1.61-6.69,3.23-10.03,4.84,1.84,12.91,3.69,25.82,5.53,38.73,2.71-1.15,5.42-2.31,8.13-3.46-.52-3.29-1.04-6.57-1.56-9.86,3.17-1.56,6.34-3.11,9.51-4.67,1.79,2.02,3.57,4.03,5.36,6.05,2.9,2.18,6.07-1.25,9.68-2.42-8.88-9.74-17.75-19.48-26.63-29.22Zm.52,23.69c-.98-5.01-1.96-10.03-2.94-15.04,3.34,3.86,6.69,7.72,10.03,11.59-2.36,1.15-4.73,2.31-7.09,3.46Z"/><path class="cls-3" d="m580.11,274.95c-2.87-4.73-13.55-10.2-20.06-11.24-5.19,11.18-10.38,22.37-15.56,33.55,5.52,3.11,10.98,6.51,18.33,7.78,7.36,1.27,13.93-4.72,12.28-11.76-.6-2.56-2.19-4.01-3.63-5.71,7.26.17,12.69-5.96,8.65-12.62Zm-14.18,20.92c-2.74,4.08-8.06.79-11.24-.35,1.44-3.17,2.88-6.34,4.32-9.51,3.73.75,10.18,5,6.92,9.86Zm5.71-14.53c-2.35,2.92-7.41-.05-9.68-.86-.21-2.43,2.58-5.42,3.29-7.95,3.72.61,9.99,4.35,6.4,8.82Z"/><path class="cls-3" d="m492.61,431.79c.29.23.58.46.86.69.22-30.71-12.86-48.48-26.63-66.06-21.01-26.82-43.18-44.5-80.93-54.82-12.91-3.53-34.4-5.95-50.67-3.29-8.48,1.39-16.52,2.05-23.86,4.32-15.31,4.75-28.31,12.26-39.77,20.92-4.09,3.63-8.19,7.26-12.28,10.89-12.37,9.83-24.72,21.93-31.13,37.52-.46,1.61-.92,3.23-1.38,4.84-1.02,2.4-2.92,4.68-3.98,7.26-6.19,15.13-10.38,35.54-10.03,56.54,1.27-.06,2.54-.12,3.8-.17.95-16.37,2.55-29.89,6.57-42.71,2.27-7.25,6.35-13.76,8.47-20.58.23-.17.46-.35.69-.52.4,1.67.81,3.34,1.21,5.01,1.51,4.99,3.03,10.04,6.05,13.49-2.84,5.51-5.63,11.22-7.44,17.81-3.26,11.88-1.81,27.42-.86,40.29-2.73,3.6-6.01,7.04-7.95,11.41-.98,2.59-1.96,5.19-2.94,7.78-.46-2.25-.92-4.5-1.38-6.74-1.52-7.04-2.38-14.99-2.25-23.52-1.33-.06-2.65-.12-3.98-.17.07,12.9.56,26.42,3.29,37.35,4.36,17.48,11.97,30.77,20.92,43.4,3.34,4.55,6.69,9.11,10.03,13.66,1.44,1.44,2.88,2.88,4.32,4.32,1.15,1.51,2.17,3.14,3.63,4.32,14.93,12.04,31.22,22.73,50.67,30.26,8.26,3.2,17.45,5.05,26.98,6.92,20.45,4,45.02.3,61.04-4.67,44.23-13.72,82.23-48.62,94.93-93.72-.16-.96-.06-.77-.86-1.04,1.33-5.59,2.65-11.18,3.98-16.77,2.76-12.82,2.76-30.61.86-44.27Zm-88.88-78.85c12.15.01,22.58,1.72,32.34,4.15,2.81.7,5.76.91,7.95,2.25,8.42,5.14,15.82,15.74,20.92,24.38,4.78,8.11,9.94,19.8,7.09,33.2-1.81,8.49-4.61,16.52-8.47,23.17-1.67,2.82-3.34,5.65-5.01,8.47-1.95.74-10.28-1.2-12.97-1.73-10.55-1.56-21.1-3.11-31.64-4.67-4.71-12.51-12.45-23.17-19.19-33.89-3.02-4.8-6.19-11.39-10.55-14.87,2.02-4.78,4.04-9.57,6.05-14.35,3.3-7.79,6.6-18.94,11.07-25.59.81-.17,1.61-.35,2.42-.52Zm-13.66-8.82c1.9,2.54,3.8,5.07,5.71,7.61-5.42,12.85-10.84,25.71-16.25,38.56-13.15.19-24.81,3.09-35.62,6.05-5.01,1.15-10.03,2.31-15.04,3.46-2.13.75-4.27,1.5-6.4,2.25-1.3-2.73-5.28-5.24-7.61-7.09-6.45-5.13-13.01-10.02-19.89-14.87-2.25-1.56-4.5-3.11-6.74-4.67-2-3.57,3.87-17.01,5.19-20.06,6.94-16.12,12.05-25.95,30.61-30.61,4.73-.81,9.45-1.61,14.18-2.42,2.25-.17,4.5-.35,6.74-.52,18.23-.02,37.07,12.27,45.13,22.31Zm-104.27-14.53c3.86-2.02,7.72-4.03,11.59-6.05,6.52-2.86,13.38-5.28,20.58-7.44,6.31-1.89,13.12-2.56,20.06-3.8,2.88-.23,5.76-.46,8.65-.69,7.33.02,14.41.58,20.75.86v.17c-1.89,1.98-4.98,3.12-6.23,5.71-2.42-.46-4.84-.92-7.26-1.38-2.48-.17-4.96-.35-7.44-.52-5-.81-10.59.7-14.53,1.56-13.13,2.84-24.07,4.85-31.3,13.31-5.05-.14-9.16-1.44-14.87-1.38v-.35Zm-48.94,133.32c-2.13-4.43-.49-11.07-1.38-16.6-2.3-14.17,5.23-34.07,10.55-41.67,2.1-3.01,6.01-4.59,9.16-6.57,9.74-6.17,19.48-12.34,29.22-18.5,3.52.71,6.97,4.48,9.68,6.4,8.42,5.96,18.68,12.09,24.9,20.23-2.01,5.76-1.64,13-2.77,19.54-.86,7.55-1.73,15.1-2.59,22.65-.81,4.95-1.39,10.78-.52,15.39-13.95,9.22-27.9,18.45-41.85,27.67-5.98-.34-12.39-7.3-16.25-10.38-4.92-3.91-15.51-12.66-18.16-18.16Zm38.04,101.5c-3.91-2.77-14.32-9.92-16.25-13.83,4.61,1.22,17.76-.19,20.75-1.73,2.77.64,7.6,5.45,10.38,7.09,8.6,5.1,18.05,8.73,28.19,12.28,4.86,1.7,10.35,3.73,16.77,3.63,2.77,4.54,8.38,14.18,12.97,16.43.35.46.69.92,1.04,1.38-28.62-1.8-55.92-12.55-73.84-25.25Zm88.71-11.93c-7.76,5.51-17.73,12.01-28.53,14.01-4.41.81-11.79-2.15-15.04-3.29-12.89-4.5-25.41-9.37-35.1-17.12-3-2.4-4.94-12.76-6.4-17.12-2.39-7.15-3.23-14.25-4.67-22.83-.44-2.61-.9-7.8.35-10.03,14.29-9.51,28.59-19.02,42.88-28.53,2.59,1.2,4.81,3.44,7.61,4.67,9.45,4.21,18.91,8.42,28.36,12.62,5.1,2.24,10.46,5.43,16.43,6.57,1.69,11.57,3.73,23.1,6.05,34.93.63,4.61,1.27,9.22,1.9,13.83-.85,2.82-11.06,10.31-13.83,12.28Zm19.19-13.14c-1.43-10.56-2.32-20.34-4.5-30.26-1.21-6.34-2.42-12.68-3.63-19.02,9.05-10.09,18.1-20.18,27.15-30.26,3.43-4.26,7.92-7.73,10.89-12.45,15.04,2.31,30.09,4.61,45.13,6.92,5.6,9.09,7.78,22.04,7.78,36.66-.06,3-.12,5.99-.17,8.99-3.41,13.53-15.49,26.88-25.07,34.58-3.9,3.13-7.9,7.93-12.97,9.68-11.95,4.14-35.82-1.61-44.61-4.84Zm51.7,23c-4.48,3.29-9.02,7.16-14.35,9.51,3.64-6.53,8.01-13.54,9.16-22.48,14.34-7.59,35.04-28.08,40.12-44.61,3.5-1.29,7.77-1.29,10.55-3.29h.52c-10.43,25.38-25.38,45.72-46,60.87Zm43.75-153.73c-.12-1.79-.23-3.57-.35-5.36-.81-3.29-1.61-6.57-2.42-9.86-4.89-12.68-12.02-24.81-21.79-32.68-1.53-1.23-2.64-3.08-4.5-3.98-.62-.89-.95-1.96-1.04-3.46,15.21,11.06,24.87,28.02,32.34,46.86,2.03,5.11,4.49,10.93,5.36,16.95-2.54-2.82-5.07-5.65-7.61-8.47Z"/></svg>